<?xml version="1.0" standalone="no"?><!DOCTYPE svg PUBLIC "-//W3C//DTD SVG 1.1//EN" "http://www.w3.org/Graphics/SVG/1.1/DTD/svg11.dtd"><svg height="240" node-id="1" sillyvg="true" template-height="240" template-width="240" version="1.1" viewBox="0 0 240 240" width="240" xmlns="http://www.w3.org/2000/svg" xmlns:xlink="http://www.w3.org/1999/xlink"><defs node-id="50"><linearGradient gradientUnits="objectBoundingBox" id="linearGradient-1" node-id="5" spreadMethod="pad" x1="0.4263665" x2="0.9433375" y1="0.3941561" y2="0.63890976"><stop offset="0" stop-color="#eeeeee"></stop><stop offset="1" stop-color="#d8d8d8"></stop></linearGradient><linearGradient gradientUnits="objectBoundingBox" id="linearGradient-2" node-id="8" spreadMethod="pad" x1="0.4263665" x2="0.9433375" y1="0.25040644" y2="0.82756716"><stop offset="0" stop-color="#eeeeee"></stop><stop offset="1" stop-color="#d8d8d8"></stop></linearGradient><linearGradient gradientUnits="objectBoundingBox" id="linearGradient-3" node-id="11" spreadMethod="pad" x1="0.42636648" x2="0.94333744" y1="0.40473852" y2="0.6250213"><stop offset="0" stop-color="#eeeeee"></stop><stop offset="1" stop-color="#d8d8d8"></stop></linearGradient><linearGradient gradientUnits="objectBoundingBox" id="linearGradient-4" node-id="14" spreadMethod="pad" x1="0.16949458" x2="0.81221455" y1="0.047058508" y2="0.9296721"><stop offset="0" stop-color="#f3f4f6"></stop><stop offset="1" stop-color="#e4e6e9"></stop></linearGradient><linearGradient gradientUnits="objectBoundingBox" id="linearGradient-5" node-id="17" spreadMethod="pad" x1="0.5" x2="0.5" y1="0" y2="1"><stop offset="0" stop-color="#eeeff0"></stop><stop offset="1" stop-color="#d8dadd"></stop></linearGradient><linearGradient gradientUnits="objectBoundingBox" id="linearGradient-6" node-id="20" spreadMethod="pad" x1="0.5" x2="0.5" y1="0" y2="1.8096505"><stop offset="0" stop-color="#e7e8e8"></stop><stop offset="1" stop-color="#cbcccd"></stop></linearGradient></defs><g node-id="87"><g node-id="88"><g node-id="89"><g node-id="90"><path d="M 169.18 54.95 L 169.26 57.56 L 168.79 59.63 L 167.84 61.28 L 166.39 62.62 L 164.32 63.65 L 161.43 64.34 L 160.73 62.63 L 160.53 60.86 L 160.83 58.99 L 161.69 56.93 L 163.26 54.62 L 165.71 51.99 L 169.29 49.00 L 169.18 54.95 Z" fill="url(#linearGradient-1)" fill-rule="evenodd" group-id="1,2,3,4" id="路径-2备份-5" node-id="27" stroke="none" target-height="15.346249" target-width="8.759628" target-x="160.53152" target-y="48.99631"></path></g><g node-id="91"><path d="M 76.86 96.69 L 78.50 97.38 L 79.67 98.33 L 80.45 99.58 L 80.87 101.19 L 80.86 103.30 L 79.87 103.50 L 78.90 103.25 L 77.88 102.47 L 76.76 100.93 L 75.51 98.29 L 74.15 94.13 L 76.86 96.69 Z" fill="url(#linearGradient-2)" fill-rule="evenodd" group-id="1,2,3,5" id="路径-2备份-4" node-id="28" stroke="none" target-height="9.370132" target-width="6.7177124" target-x="74.14957" target-y="94.12552"></path></g><g node-id="92"><path d="M 82.71 46.03 L 84.78 46.19 L 86.38 46.73 L 87.61 47.59 L 88.54 48.80 L 89.19 50.43 L 89.51 52.62 L 87.87 53.02 L 86.22 52.90 L 84.47 52.25 L 82.56 50.92 L 80.43 48.74 L 78.04 45.43 L 82.71 46.03 Z" fill="url(#linearGradient-3)" fill-rule="evenodd" group-id="1,2,3,6" id="路径-2备份-3" node-id="29" stroke="none" target-height="7.5890503" target-width="11.467545" target-x="78.039055" target-y="45.427444"></path></g><path d="M 90.62 62.65 L 147.45 62.65 L 147.45 127.90 L 90.62 127.90 Z" fill="url(#linearGradient-4)" fill-rule="evenodd" group-id="1,2,3" id="矩形" node-id="30" stroke="none" target-height="65.25386" target-width="56.828857" target-x="90.62477" target-y="62.64671"></path><path d="M 97.99 68.96 L 140.09 68.96 L 140.09 119.48 L 97.99 119.48 Z" fill="#f7f8fa" fill-rule="evenodd" group-id="1,2,3" id="矩形备份-5" node-id="31" stroke="none" target-height="50.519127" target-width="42.095444" target-x="97.99147" target-y="68.9616"></path><path d="M 126.41 57.38 L 126.14 59.36 L 125.40 61.10 L 124.25 62.59 L 122.76 63.75 L 121.01 64.48 L 119.04 64.75 L 117.07 64.48 L 115.32 63.75 L 113.83 62.59 L 112.68 61.10 L 111.94 59.36 L 111.67 57.38 L 111.94 55.41 L 112.68 53.67 L 113.83 52.17 L 115.32 51.02 L 117.07 50.28 L 119.04 50.02 L 121.01 50.28 L 122.76 51.02 L 124.25 52.17 L 125.40 53.67 L 126.14 55.41 L 126.41 57.38 Z" fill="#e4e6e9" fill-rule="evenodd" group-id="1,2,3" id="椭圆形" node-id="32" stroke="none" target-height="14.734741" target-width="14.733406" target-x="111.67249" target-y="50.01693"></path><path d="M 104.31 57.38 L 133.77 57.38 L 133.77 64.75 L 104.31 64.75 Z" fill="url(#linearGradient-5)" fill-rule="evenodd" group-id="1,2,3" id="矩形" node-id="33" stroke="none" target-height="7.3673706" target-width="29.466827" target-x="104.305786" target-y="57.3843"></path><path d="M 116.79 79.72 L 135.45 79.72 L 136.14 79.86 L 136.69 80.23 L 137.07 80.79 L 137.21 81.47 L 137.21 81.47 L 137.07 82.16 L 136.69 82.71 L 136.14 83.09 L 135.45 83.23 L 116.79 83.23 L 116.10 83.09 L 115.55 82.71 L 115.18 82.16 L 115.04 81.47 L 115.04 81.47 L 115.18 80.79 L 115.55 80.23 L 116.10 79.86 L 116.79 79.72 Z" fill="#e5e7ea" fill-rule="evenodd" group-id="1,2,3" id="矩形备份-32" node-id="34" stroke="none" target-height="3.5067368" target-width="22.17096" target-x="115.036835" target-y="79.719284"></path><path d="M 106.41 86.98 L 104.83 86.75 L 103.47 86.19 L 102.28 85.27 L 101.36 84.09 L 100.79 82.73 L 100.57 81.14 L 100.79 79.56 L 101.36 78.20 L 102.28 77.02 L 103.47 76.10 L 104.83 75.53 L 106.41 75.31 L 108.00 75.53 L 109.36 76.10 L 110.55 77.02 L 111.47 78.20 L 112.03 79.56 L 112.26 81.14 L 112.03 82.73 L 111.47 84.09 L 110.55 85.27 L 109.36 86.19 L 108.00 86.75 L 106.41 86.98 Z" fill="#d8d8d8" fill-rule="evenodd" group-id="1,2,3,7,9" id="椭圆形" node-id="37" stroke="none" target-height="11.668922" target-width="11.68914" target-x="100.569275" target-y="75.30956"></path><path d="M 108.48 79.08 L 108.48 79.08 L 108.65 79.49 L 108.48 79.90 L 105.17 83.21 L 104.76 83.38 L 104.35 83.21 L 104.35 83.21 L 104.18 82.80 L 104.35 82.39 L 107.66 79.08 L 108.07 78.91 L 108.48 79.08 Z" fill="none" group-id="1,2,3,7" id="矩形" node-id="38" stroke="#f6f6f6" stroke-linecap="butt" stroke-width="1.1689136" target-height="4.473915" target-width="4.473915" target-x="104.17689" target-y="78.90707"></path><path d="M 105.18 79.08 L 108.48 82.38 L 108.65 82.79 L 108.48 83.21 L 108.48 83.21 L 108.06 83.38 L 107.65 83.21 L 104.35 79.91 L 104.18 79.50 L 104.35 79.08 L 104.35 79.08 L 104.77 78.91 L 105.18 79.08 Z" fill="none" group-id="1,2,3,7" id="矩形" node-id="39" stroke="#f6f6f6" stroke-linecap="butt" stroke-width="1.1689136" target-height="4.466522" target-width="4.46653" target-x="104.18058" target-y="78.91077"></path><path d="M 116.79 96.08 L 135.45 96.08 L 136.14 96.22 L 136.69 96.60 L 137.07 97.15 L 137.21 97.84 L 137.21 97.84 L 137.07 98.53 L 136.69 99.08 L 136.14 99.45 L 135.45 99.59 L 116.79 99.59 L 116.10 99.45 L 115.55 99.08 L 115.18 98.53 L 115.04 97.84 L 115.04 97.84 L 115.18 97.15 L 115.55 96.60 L 116.10 96.22 L 116.79 96.08 Z" fill="#e5e7ea" fill-rule="evenodd" group-id="1,2,3" id="矩形备份-33" node-id="40" stroke="none" target-height="3.5067368" target-width="22.17096" target-x="115.036835" target-y="96.084076"></path><path d="M 106.41 103.34 L 104.83 103.12 L 103.47 102.55 L 102.28 101.63 L 101.36 100.45 L 100.79 99.09 L 100.57 97.51 L 100.79 95.92 L 101.36 94.57 L 102.28 93.38 L 103.47 92.47 L 104.83 91.90 L 106.41 91.67 L 108.00 91.90 L 109.36 92.47 L 110.55 93.38 L 111.47 94.57 L 112.03 95.92 L 112.26 97.51 L 112.03 99.09 L 111.47 100.45 L 110.55 101.63 L 109.36 102.55 L 108.00 103.12 L 106.41 103.34 Z" fill="#d8d8d8" fill-rule="evenodd" group-id="1,2,3,8,10" id="椭圆形" node-id="43" stroke="none" target-height="11.668922" target-width="11.68914" target-x="100.569275" target-y="91.674355"></path><path d="M 108.48 95.44 L 108.48 95.44 L 108.65 95.85 L 108.48 96.27 L 105.17 99.58 L 104.76 99.75 L 104.35 99.58 L 104.35 99.58 L 104.18 99.16 L 104.35 98.75 L 107.66 95.44 L 108.07 95.27 L 108.48 95.44 Z" fill="none" group-id="1,2,3,8" id="矩形" node-id="44" stroke="#f6f6f6" stroke-linecap="butt" stroke-width="1.1689136" target-height="4.473915" target-width="4.473915" target-x="104.17689" target-y="95.27186"></path><path d="M 105.18 95.45 L 108.48 98.74 L 108.65 99.16 L 108.48 99.57 L 108.48 99.57 L 108.06 99.74 L 107.65 99.57 L 104.35 96.27 L 104.18 95.86 L 104.35 95.45 L 104.35 95.45 L 104.77 95.28 L 105.18 95.45 Z" fill="none" group-id="1,2,3,8" id="矩形" node-id="45" stroke="#f6f6f6" stroke-linecap="butt" stroke-width="1.1689136" target-height="4.466522" target-width="4.46653" target-x="104.18058" target-y="95.27556"></path><path d="M 95.14 113.12 L 134.96 113.12 L 135.40 115.79 L 135.99 117.51 L 136.67 118.55 L 137.43 119.11 L 137.44 119.26 L 135.52 119.50 L 125.82 119.76 L 97.86 119.74 L 96.46 118.69 L 95.60 117.69 L 95.14 116.73 L 94.89 115.08 L 95.14 113.12 Z" fill="url(#linearGradient-6)" fill-rule="evenodd" group-id="1,2,3" id="路径-21" node-id="46" stroke="none" target-height="6.640396" target-width="42.549133" target-x="94.89488" target-y="113.11595"></path></g><path d="M 61.56 166.98 L 61.56 153.28 L 67.26 153.28 L 66.72 155.82 L 65.77 157.87 L 64.32 159.71 L 62.28 161.36 L 63.24 162.54 L 65.36 160.85 L 66.90 158.97 L 67.94 156.86 L 70.58 159.76 L 72.52 162.32 L 73.60 161.22 L 71.29 158.41 L 68.36 155.42 L 68.74 153.28 L 74.46 153.28 L 74.46 164.44 L 74.22 165.17 L 73.50 165.42 L 70.44 165.34 L 70.84 166.78 L 73.98 166.78 L 75.07 166.55 L 75.68 165.91 L 75.92 164.76 L 75.92 151.88 L 68.90 151.88 L 69.04 148.60 L 67.58 148.60 L 67.42 151.88 L 60.10 151.88 L 60.10 166.98 L 61.56 166.98 Z M 81.70 154.00 L 81.70 151.68 L 95.26 151.68 L 95.26 153.90 L 96.66 153.90 L 96.66 150.34 L 89.40 150.34 L 88.72 148.56 L 87.18 148.82 L 87.90 150.34 L 80.30 150.34 L 80.30 154.00 L 81.70 154.00 Z M 80.78 157.26 L 84.28 155.40 L 87.04 153.36 L 86.08 152.50 L 83.36 154.41 L 79.92 156.14 L 80.78 157.26 Z M 95.90 157.22 L 96.90 156.24 L 94.25 154.45 L 90.82 152.52 L 89.90 153.42 L 93.47 155.48 L 95.90 157.22 Z M 84.12 167.02 L 84.12 166.18 L 93.06 166.18 L 93.06 167.02 L 94.44 167.02 L 94.44 160.48 L 96.66 161.44 L 97.44 160.26 L 93.58 158.51 L 90.87 156.74 L 89.06 154.96 L 87.96 154.96 L 85.80 156.93 L 83.01 158.71 L 79.48 160.28 L 80.24 161.46 L 82.72 160.40 L 82.72 167.02 L 84.12 167.02 Z M 94.22 160.38 L 82.76 160.38 L 85.89 158.50 L 88.50 156.22 L 89.97 157.66 L 91.85 159.05 L 94.22 160.38 Z M 93.06 164.86 L 84.12 164.86 L 84.12 161.66 L 93.06 161.66 L 93.06 164.86 Z M 100.76 167.08 L 102.04 165.43 L 103.10 163.39 L 103.93 160.89 L 104.48 157.85 L 104.72 154.16 L 107.38 154.16 L 107.14 163.78 L 106.81 164.77 L 106.24 165.31 L 105.36 165.50 L 103.68 165.42 L 104.04 166.74 L 105.56 166.82 L 106.79 166.64 L 107.63 166.18 L 108.19 165.44 L 108.50 164.34 L 108.69 161.46 L 108.80 153.73 L 108.80 152.76 L 108.80 152.76 L 104.72 152.76 L 104.72 148.72 L 103.28 148.72 L 103.28 152.76 L 100.08 152.76 L 100.08 154.16 L 103.28 154.16 L 102.97 158.36 L 102.22 161.64 L 101.12 164.19 L 99.70 166.14 L 100.76 167.08 Z M 112.02 166.70 L 112.02 165.36 L 115.78 165.36 L 115.78 166.70 L 117.18 166.70 L 117.18 151.64 L 110.64 151.64 L 110.64 166.70 L 112.02 166.70 Z M 115.78 163.98 L 112.02 163.98 L 112.02 153.02 L 115.78 153.02 L 115.78 163.98 Z M 130.32 166.96 L 132.17 165.67 L 133.86 163.86 L 134.44 164.94 L 135.32 166.06 L 136.03 166.60 L 136.64 166.76 L 137.25 166.48 L 137.89 165.40 L 138.54 162.76 L 137.30 162.10 L 136.80 164.85 L 136.46 165.30 L 136.01 165.04 L 135.20 163.82 L 134.68 162.60 L 136.00 159.88 L 137.14 156.32 L 135.86 155.74 L 135.07 158.46 L 134.12 160.74 L 133.76 159.10 L 133.26 154.74 L 138.22 154.74 L 138.22 153.44 L 133.18 153.44 L 133.06 148.56 L 131.66 148.56 L 131.78 153.44 L 126.98 153.44 L 126.98 151.60 L 130.60 151.60 L 130.60 150.28 L 126.98 150.28 L 126.98 148.60 L 125.58 148.60 L 125.58 150.28 L 121.68 150.28 L 121.68 151.60 L 125.58 151.60 L 125.58 153.44 L 120.64 153.44 L 120.64 154.74 L 131.86 154.74 L 132.12 157.34 L 132.48 159.40 L 133.24 162.30 L 131.52 164.35 L 129.54 165.80 L 130.32 166.96 Z M 136.36 152.52 L 137.44 151.76 L 135.12 148.82 L 134.02 149.52 L 135.41 151.16 L 136.36 152.52 Z M 127.48 166.94 L 127.48 164.58 L 130.60 164.20 L 130.60 162.92 L 127.48 163.28 L 127.48 161.64 L 130.52 161.64 L 130.52 160.42 L 127.48 160.42 L 127.48 158.86 L 126.06 158.86 L 126.06 160.42 L 123.48 160.42 L 124.90 157.96 L 130.70 157.96 L 130.70 156.68 L 125.46 156.68 L 125.94 155.42 L 124.56 155.16 L 124.00 156.68 L 121.24 156.68 L 121.24 157.96 L 123.44 157.96 L 122.67 159.37 L 121.88 160.46 L 122.16 161.64 L 126.06 161.64 L 126.06 163.42 L 121.32 163.76 L 121.50 165.10 L 126.06 164.72 L 126.06 166.94 L 127.48 166.94 Z M 141.60 166.96 L 144.64 165.72 L 146.85 164.29 L 148.40 162.70 L 149.32 161.16 L 150.02 159.28 L 151.06 161.46 L 152.69 163.45 L 155.01 165.28 L 158.18 166.94 L 158.98 165.68 L 155.92 164.23 L 153.71 162.62 L 152.19 160.87 L 151.24 158.96 L 158.68 158.96 L 158.68 157.58 L 150.42 157.58 L 150.68 154.88 L 150.68 153.58 L 157.38 153.58 L 157.38 152.18 L 150.68 152.18 L 150.68 148.68 L 149.20 148.68 L 149.20 152.18 L 145.16 152.18 L 146.22 149.60 L 144.88 149.08 L 143.80 151.65 L 142.45 153.77 L 140.84 155.50 L 142.06 156.56 L 143.27 155.24 L 144.42 153.58 L 149.20 153.58 L 149.20 154.88 L 148.92 157.58 L 141.18 157.58 L 141.18 158.96 L 148.62 158.96 L 148.07 160.43 L 147.38 161.70 L 145.96 163.14 L 143.85 164.49 L 140.82 165.74 L 141.60 166.96 Z M 178.84 167.02 L 179.62 165.66 L 177.52 164.00 L 175.80 162.06 L 176.91 159.55 L 177.65 156.61 L 177.98 153.14 L 179.26 153.14 L 179.26 151.76 L 173.40 151.76 L 173.98 148.76 L 172.56 148.58 L 171.93 152.05 L 170.98 154.73 L 169.76 156.78 L 170.60 157.86 L 171.90 155.92 L 172.82 159.27 L 174.18 162.12 L 172.54 164.10 L 170.46 165.74 L 171.24 167.00 L 173.31 165.34 L 175.00 163.36 L 176.73 165.33 L 178.84 167.02 Z M 163.36 161.98 L 163.36 150.80 L 168.10 150.80 L 168.10 161.98 L 169.42 161.98 L 169.42 149.46 L 162.04 149.46 L 162.04 161.98 L 163.36 161.98 Z M 162.10 166.96 L 163.48 166.13 L 164.54 165.12 L 165.34 163.94 L 166.06 161.68 L 166.38 158.40 L 166.38 152.30 L 165.12 152.30 L 165.12 158.40 L 164.86 161.08 L 164.28 163.00 L 163.60 164.02 L 162.63 164.93 L 161.32 165.72 L 162.10 166.96 Z M 174.94 160.74 L 173.98 158.72 L 173.26 156.42 L 172.80 153.78 L 173.02 153.14 L 176.64 153.14 L 176.38 156.05 L 175.80 158.56 L 174.94 160.74 Z M 168.94 166.92 L 170.00 165.88 L 168.73 164.26 L 167.12 162.56 L 166.18 163.48 L 167.81 165.32 L 168.94 166.92 Z" fill="#666666" fill-rule="nonzero" group-id="1,2" id="内容加载失败" node-id="47" stroke="none" target-height="18.520004" target-width="119.52" target-x="60.1" target-y="148.56"></path><path d="M 79.29 196.18 L 79.29 193.50 L 83.04 193.50 L 83.04 194.72 L 82.90 195.22 L 82.53 195.37 L 81.39 195.34 L 81.62 196.15 L 82.80 196.15 L 83.41 196.01 L 83.76 195.63 L 83.90 194.90 L 83.90 188.52 L 81.56 188.52 L 81.56 185.21 L 80.75 185.21 L 80.75 188.52 L 78.44 188.52 L 78.44 196.18 L 79.29 196.18 Z M 76.32 196.15 L 76.32 190.64 L 77.49 192.44 L 77.97 191.71 L 76.32 189.89 L 76.32 189.31 L 77.84 189.31 L 77.84 188.48 L 76.32 188.48 L 76.32 186.48 L 77.70 186.08 L 77.42 185.32 L 75.78 185.77 L 73.80 186.07 L 73.97 186.89 L 75.48 186.66 L 75.48 188.48 L 73.83 188.48 L 73.83 189.31 L 75.45 189.31 L 74.70 191.16 L 73.58 192.80 L 73.95 193.75 L 74.81 192.36 L 75.48 190.79 L 75.48 196.15 L 76.32 196.15 Z M 79.14 187.94 L 79.82 187.62 L 78.65 185.50 L 77.98 185.82 L 79.14 187.94 Z M 83.12 187.98 L 84.38 185.84 L 83.72 185.53 L 82.47 187.64 L 83.12 187.98 Z M 83.04 190.73 L 79.29 190.73 L 79.29 189.32 L 83.04 189.32 L 83.04 190.73 Z M 83.04 192.78 L 79.29 192.78 L 79.29 191.45 L 83.04 191.45 L 83.04 192.78 Z M 86.39 196.16 L 87.21 194.50 L 87.77 192.40 L 88.02 189.74 L 88.02 189.43 L 96.66 189.43 L 96.66 188.59 L 88.02 188.59 L 88.02 186.91 L 92.30 186.65 L 95.94 186.10 L 95.51 185.32 L 91.69 185.90 L 87.17 186.14 L 87.17 189.74 L 86.94 192.17 L 86.45 194.05 L 85.76 195.50 L 86.39 196.16 Z M 89.99 196.20 L 89.99 195.64 L 94.85 195.64 L 94.85 196.20 L 95.72 196.20 L 95.72 191.11 L 89.13 191.11 L 89.13 196.20 L 89.99 196.20 Z M 94.85 194.80 L 89.99 194.80 L 89.99 191.94 L 94.85 191.94 L 94.85 194.80 Z M 100.40 196.20 L 100.40 193.16 L 106.76 193.16 L 106.76 194.75 L 106.62 195.21 L 106.23 195.36 L 105.10 195.32 L 105.33 196.16 L 106.50 196.16 L 107.11 196.03 L 107.46 195.65 L 107.60 194.94 L 107.60 193.16 L 108.98 193.16 L 108.98 192.35 L 107.60 192.35 L 107.60 187.80 L 104.01 187.80 L 104.01 186.56 L 108.63 186.56 L 108.63 185.75 L 98.54 185.75 L 98.54 186.56 L 103.14 186.56 L 103.14 187.80 L 99.56 187.80 L 99.56 192.35 L 98.18 192.35 L 98.18 193.16 L 99.56 193.16 L 99.56 196.20 L 100.40 196.20 Z M 103.14 190.06 L 100.40 190.06 L 100.40 188.59 L 103.14 188.59 L 103.14 190.06 Z M 106.76 190.06 L 104.01 190.06 L 104.01 188.59 L 106.76 188.59 L 106.76 190.06 Z M 103.14 192.35 L 100.40 192.35 L 100.40 190.82 L 103.14 190.82 L 103.14 192.35 Z M 106.76 192.35 L 104.01 192.35 L 104.01 190.82 L 106.76 190.82 L 106.76 192.35 Z M 120.33 187.08 L 120.93 186.66 L 119.73 185.15 L 119.12 185.52 L 120.33 187.08 Z M 120.05 196.02 L 120.47 195.84 L 120.94 195.13 L 121.47 193.43 L 120.78 192.88 L 120.33 194.73 L 120.05 195.08 L 119.64 194.71 L 119.12 192.97 L 118.73 188.20 L 121.11 188.20 L 121.11 187.36 L 118.72 187.36 L 118.70 185.16 L 117.86 185.16 L 117.88 187.36 L 114.10 187.36 L 114.10 188.20 L 117.90 188.20 L 118.17 192.14 L 118.52 193.90 L 118.96 195.08 L 119.51 195.82 L 120.05 196.02 Z M 113.15 187.76 L 113.74 187.16 L 111.81 185.32 L 111.21 185.90 L 113.15 187.76 Z M 112.12 195.77 L 114.22 193.86 L 113.99 192.95 L 112.89 194.10 L 112.89 188.87 L 110.37 188.87 L 110.37 189.70 L 112.05 189.70 L 112.05 194.51 L 111.78 195.00 L 112.12 195.77 Z M 114.54 195.30 L 117.92 194.54 L 117.92 193.74 L 116.36 194.14 L 116.36 190.88 L 117.48 190.88 L 117.48 190.08 L 114.38 190.08 L 114.38 190.88 L 115.50 190.88 L 115.50 194.30 L 114.33 194.48 L 114.54 195.30 Z M 132.62 187.08 L 133.22 186.66 L 132.02 185.15 L 131.40 185.52 L 132.62 187.08 Z M 132.34 196.02 L 132.76 195.84 L 133.23 195.13 L 133.76 193.43 L 133.07 192.88 L 132.62 194.73 L 132.34 195.08 L 131.93 194.71 L 131.40 192.97 L 131.02 188.20 L 133.40 188.20 L 133.40 187.36 L 131.01 187.36 L 130.98 185.16 L 130.14 185.16 L 130.17 187.36 L 126.39 187.36 L 126.39 188.20 L 130.19 188.20 L 130.46 192.14 L 130.80 193.90 L 131.25 195.08 L 131.80 195.82 L 132.34 196.02 Z M 125.44 187.76 L 126.03 187.16 L 124.10 185.32 L 123.50 185.90 L 125.44 187.76 Z M 124.41 195.77 L 126.51 193.86 L 126.28 192.95 L 125.18 194.10 L 125.18 188.87 L 122.66 188.87 L 122.66 189.70 L 124.34 189.70 L 124.34 194.51 L 124.07 195.00 L 124.41 195.77 Z M 126.83 195.30 L 130.20 194.54 L 130.20 193.74 L 128.64 194.14 L 128.64 190.88 L 129.77 190.88 L 129.77 190.08 L 126.66 190.08 L 126.66 190.88 L 127.79 190.88 L 127.79 194.30 L 126.62 194.48 L 126.83 195.30 Z M 138.27 196.21 L 138.27 195.70 L 143.69 195.70 L 143.69 196.21 L 144.52 196.21 L 144.52 190.56 L 138.57 190.56 L 139.23 189.73 L 145.72 189.73 L 145.72 188.96 L 139.76 188.96 L 140.21 188.15 L 145.02 188.15 L 145.02 187.40 L 140.56 187.40 L 140.91 186.47 L 144.88 185.92 L 144.48 185.23 L 140.90 185.73 L 136.01 185.92 L 136.26 186.64 L 140.08 186.53 L 139.71 187.40 L 135.90 187.40 L 135.90 188.15 L 139.31 188.15 L 138.78 188.96 L 135.26 188.96 L 135.26 189.73 L 138.18 189.73 L 136.77 191.16 L 134.94 192.56 L 135.41 193.31 L 137.44 191.71 L 137.44 196.21 L 138.27 196.21 Z M 143.69 192.07 L 138.27 192.07 L 138.27 191.27 L 143.69 191.27 L 143.69 192.07 Z M 143.69 193.50 L 138.27 193.50 L 138.27 192.74 L 143.69 192.74 L 143.69 193.50 Z M 143.69 194.99 L 138.27 194.99 L 138.27 194.17 L 143.69 194.17 L 143.69 194.99 Z M 156.70 196.00 L 157.40 195.76 L 157.82 195.13 L 158.09 193.32 L 157.29 193.06 L 157.06 194.74 L 156.82 195.05 L 156.45 195.17 L 153.53 195.17 L 153.03 194.97 L 152.85 194.36 L 152.85 191.15 L 157.48 191.15 L 157.48 185.77 L 152.01 185.77 L 152.01 194.66 L 152.15 195.43 L 152.54 195.85 L 153.21 196.00 L 156.70 196.00 Z M 148.61 195.05 L 148.61 194.15 L 150.17 194.15 L 150.17 194.80 L 151.01 194.80 L 151.01 186.18 L 147.75 186.18 L 147.75 195.05 L 148.61 195.05 Z M 154.31 190.34 L 152.85 190.34 L 152.85 186.58 L 154.31 186.58 L 154.31 190.34 Z M 156.64 190.34 L 155.12 190.34 L 155.12 186.58 L 156.64 186.58 L 156.64 190.34 Z M 150.17 193.31 L 148.61 193.31 L 148.61 187.02 L 150.17 187.02 L 150.17 193.31 Z M 163.25 191.59 L 163.96 191.34 L 164.80 190.42 L 164.20 189.98 L 163.64 190.66 L 163.25 190.82 L 162.14 190.31 L 161.35 189.89 L 160.78 189.78 L 160.06 190.03 L 159.23 190.96 L 159.83 191.38 L 160.38 190.71 L 160.78 190.55 L 161.17 190.64 L 161.92 191.06 L 162.69 191.48 L 163.25 191.59 Z" fill="#999999" fill-rule="nonzero" group-id="1,2" id="稍后再试试看吧~" node-id="48" stroke="none" target-height="11.064011" target-width="91.22401" target-x="73.576" target-y="185.148"></path></g></g></svg>